<svg width="18" height="18" fill="none" xmlns="http://www.w3.org/2000/svg"><path d="M9 6.657A2.348 2.348 0 006.657 9 2.348 2.348 0 009 11.343 2.348 2.348 0 0011.343 9 2.348 2.348 0 009 6.657zM16.028 9c0-.97.009-1.932-.046-2.9-.054-1.125-.311-2.124-1.134-2.946-.824-.825-1.82-1.08-2.946-1.134-.97-.055-1.932-.046-2.9-.046-.97 0-1.932-.009-2.9.046-1.126.054-2.124.31-2.947 1.134-.824.824-1.079 1.82-1.133 2.946-.055.97-.046 1.931-.046 2.9 0 .969-.009 1.932.046 2.9.054 1.125.31 2.124 1.133 2.947.825.824 1.821 1.079 2.946 1.133.97.055 1.932.046 2.9.046.971 0 1.933.009 2.901-.046 1.125-.054 2.124-.31 2.946-1.133.825-.825 1.08-1.822 1.134-2.947.056-.968.046-1.93.046-2.9zM9 12.605A3.6 3.6 0 015.395 9 3.6 3.6 0 019 5.395 3.6 3.6 0 0112.605 9 3.6 3.6 0 019 12.605zm3.753-6.516a.841.841 0 110-1.684.841.841 0 110 1.684z" fill="#fff"/></svg>