<svg width="18" height="18" fill="none" xmlns="http://www.w3.org/2000/svg"><path d="M9 1.125a7.876 7.876 0 00-3.16 15.09c-.022-.55-.004-1.21.137-1.808l1.012-4.293s-.253-.502-.253-1.244c0-1.167.675-2.04 1.519-2.04.717 0 1.061.539 1.061 1.182 0 .72-.46 1.797-.696 2.795-.197.837.419 1.515 1.245 1.515 1.49 0 2.496-1.916 2.496-4.187 0-1.726-1.164-3.016-3.277-3.016-2.387 0-3.877 1.782-3.877 3.772 0 .686.204 1.17.52 1.543.144.173.165.243.112.44-.038.144-.123.492-.161.633-.053.2-.215.27-.394.197-1.1-.45-1.614-1.653-1.614-3.01 0-2.236 1.888-4.918 5.629-4.918 3.006 0 4.985 2.176 4.985 4.51 0 3.09-1.72 5.397-4.25 5.397-.851 0-1.65-.46-1.923-.981 0 0-.457 1.814-.556 2.166-.165.608-.492 1.213-.79 1.687a7.876 7.876 0 0010.107-7.552A7.871 7.871 0 009 1.126z" fill="#fff"/></svg>