<svg width="18" height="18" fill="none" xmlns="http://www.w3.org/2000/svg"><path d="M17.297 3.85a6.88 6.88 0 01-1.955.538 3.415 3.415 0 001.498-1.885 6.763 6.763 0 01-2.162.826 3.404 3.404 0 00-5.889 2.327c0 .268.028.528.088.778A9.646 9.646 0 011.86 2.872a3.407 3.407 0 001.058 4.55 3.324 3.324 0 01-1.547-.426v.042a3.407 3.407 0 002.732 3.34 3.4 3.4 0 01-.897.12 3.21 3.21 0 01-.64-.064A3.41 3.41 0 005.748 12.8a6.824 6.824 0 01-5.041 1.41 9.514 9.514 0 005.21 1.54c6.268 0 9.692-5.193 9.692-9.696 0-.148-.003-.295-.01-.44a6.93 6.93 0 001.698-1.764z" fill="#fff"/></svg>