<svg width="40" height="40" fill="none" xmlns="http://www.w3.org/2000/svg"><path d="M21.667 26.667V10A1.667 1.667 0 0020 8.333H6.667A1.667 1.667 0 005 10v16.667a1.667 1.667 0 001.667 1.666h1.666m13.334-1.666A1.666 1.666 0 0120 28.333h-5m6.667-1.666V13.333a1.667 1.667 0 011.666-1.666h4.31c.442 0 .866.175 1.179.488l5.69 5.69c.312.313.488.736.488 1.178v7.644a1.666 1.666 0 01-1.667 1.666h-1.666m-10-1.666a1.667 1.667 0 001.666 1.666H25m-16.667 0a3.333 3.333 0 006.667 0m-6.667 0a3.333 3.333 0 116.667 0m16.667 0a3.333 3.333 0 01-6.667 0m6.667 0a3.333 3.333 0 10-6.667 0" stroke="#121212" stroke-linecap="round" stroke-linejoin="round" opacity=".8"/></svg>