<svg width="40" height="40" fill="none" xmlns="http://www.w3.org/2000/svg"><path d="M24.9 8.65a7.3 7.3 0 001.767-5.317 7.4 7.4 0 00-5 2.534A6.95 6.95 0 0020 11.017a6.15 6.15 0 004.9-2.367zm4.2 12.4a7.518 7.518 0 013.6-6.35 7.766 7.766 0 00-6.1-3.333c-2.6-.267-5 1.516-6.383 1.516-1.384 0-3.334-1.483-5.5-1.45a8.2 8.2 0 00-6.9 4.217c-2.934 5.1-.75 12.683 2.183 16.8 1.333 2.017 3 4.3 5.2 4.217 2.2-.084 2.917-1.367 5.467-1.367s3.333 1.367 5.5 1.317c2.166-.05 3.7-2.067 5.1-4.084a18.335 18.335 0 002.3-4.75A7.35 7.35 0 0129.1 21.05z" fill="#111"/></svg>