<svg width="40" height="40" fill="none" xmlns="http://www.w3.org/2000/svg"><path d="M35.75 17.5l-.164-.695H20.469v6.398H29.5C28.562 27.656 24.21 30 20.656 30c-2.586 0-5.312-1.086-7.117-2.836-1.851-1.797-3.031-4.445-3.031-7.172 0-2.695 1.21-5.39 2.976-7.164 1.758-1.765 4.422-2.765 7.07-2.765 3.032 0 5.204 1.609 6.016 2.343l4.547-4.523c-1.336-1.172-5-4.125-10.71-4.125-4.407 0-8.634 1.687-11.72 4.765C5.642 11.555 4.064 15.938 4.064 20c0 4.063 1.492 8.234 4.445 11.289 3.156 3.258 7.625 4.961 12.226 4.961 4.188 0 8.157-1.64 10.985-4.617 2.781-2.93 4.218-6.985 4.218-11.235 0-1.789-.18-2.851-.187-2.898z" fill="#121212"/></svg>