<svg width="98" height="30" fill="none" xmlns="http://www.w3.org/2000/svg"><path d="M31.94 3.512v.72c-.72.024-1.272.12-1.656.288-.384.144-.648.432-.792.864-.12.408-.18 1.056-.18 1.944v17.856c0 .864.072 1.512.216 1.944.144.432.396.72.756.864.384.144.936.24 1.656.288V29a40.8 40.8 0 00-2.7-.072 156.008 156.008 0 00-6.768 0c-1.056 0-1.92.024-2.592.072v-.72c.816-.048 1.428-.144 1.836-.288.432-.144.72-.432.864-.864.144-.432.216-1.08.216-1.944V5.816l.324-.036-9 23.22h-.576L3.608 5.852V22.52c0 1.464.072 2.592.216 3.384.144.768.468 1.32.972 1.656.504.336 1.296.576 2.376.72V29a18.41 18.41 0 00-1.836-.072 66.004 66.004 0 00-2.124-.036c-.528 0-1.08.012-1.656.036-.552 0-1.02.024-1.404.072v-.72c.768-.144 1.332-.372 1.692-.684.384-.336.636-.852.756-1.548.12-.72.18-1.704.18-2.952V7.328c0-.888-.06-1.536-.18-1.944-.12-.432-.372-.72-.756-.864-.384-.168-.948-.264-1.692-.288v-.72c.384.024.852.048 1.404.072.576.024 1.128.036 1.656.036 1.224 0 2.4-.012 3.528-.036 1.128-.024 2.148-.048 3.06-.072l7.344 17.136-1.008 1.008L23.084 3.62h2.844c1.128 0 2.232-.012 3.312-.036 1.104-.024 2.004-.048 2.7-.072zM38.718.956c1.128 0 2.004.252 2.628.756.648.504.972 1.236.972 2.196 0 .96-.324 1.692-.972 2.196-.624.504-1.5.756-2.628.756-1.128 0-2.016-.252-2.664-.756-.624-.504-.936-1.236-.936-2.196 0-.96.312-1.692.936-2.196.648-.504 1.536-.756 2.664-.756zm3.168 9v15.696c0 1.008.156 1.692.468 2.052.336.36.9.54 1.692.54V29a94.935 94.935 0 00-2.124-.072 55.527 55.527 0 00-2.844-.072c-.96 0-1.944.024-2.952.072-.984.024-1.728.048-2.232.072v-.756c.792 0 1.344-.18 1.656-.54.336-.36.504-1.044.504-2.052V14.276c0-1.08-.156-1.872-.468-2.376-.312-.528-.876-.792-1.692-.792v-.756c.768.072 1.512.108 2.232.108 1.08 0 2.1-.036 3.06-.108a25.931 25.931 0 002.7-.396zm13.365-6.912c1.488 0 2.64.156 3.456.468.816.288 1.512.6 2.088.936.288.168.516.3.684.396.192.072.372.108.54.108.384 0 .648-.528.792-1.584h.828c-.024.48-.06 1.044-.108 1.692-.024.648-.048 1.512-.072 2.592v4.212h-.828a11.87 11.87 0 00-.9-3.744c-.504-1.2-1.2-2.196-2.088-2.988-.864-.792-1.932-1.188-3.204-1.188-1.104 0-2.016.312-2.736.936-.72.6-1.08 1.464-1.08 2.592 0 .912.228 1.704.684 2.376.456.648 1.14 1.308 2.052 1.98.936.672 2.112 1.5 3.528 2.484a33.016 33.016 0 013.024 2.232 9.146 9.146 0 012.124 2.52c.552.936.828 2.064.828 3.384 0 1.584-.432 2.904-1.296 3.96-.864 1.032-2.004 1.812-3.42 2.34-1.416.504-2.964.756-4.644.756-1.56 0-2.808-.144-3.744-.432a17.813 17.813 0 01-2.34-.9c-.528-.336-.936-.504-1.224-.504-.384 0-.648.528-.792 1.584h-.828c.048-.6.072-1.296.072-2.088.024-.816.036-1.86.036-3.132.024-1.272.036-2.892.036-4.86h.828c.096 1.632.36 3.156.792 4.572.456 1.416 1.14 2.568 2.052 3.456.936.864 2.172 1.296 3.708 1.296 1.296 0 2.352-.324 3.168-.972.816-.648 1.224-1.584 1.224-2.808 0-1.488-.504-2.724-1.512-3.708-.984-.984-2.256-1.992-3.816-3.024a48.965 48.965 0 01-3.168-2.268c-.984-.768-1.776-1.62-2.376-2.556-.576-.96-.864-2.112-.864-3.456 0-1.536.396-2.796 1.188-3.78.792-.984 1.836-1.704 3.132-2.16 1.32-.48 2.712-.72 4.176-.72zm19.608 1.44v5.868h3.888v.72h-3.888v14.724c0 .6.108 1.032.324 1.296.216.24.54.36.972.36.36 0 .732-.12 1.116-.36.408-.24.78-.648 1.116-1.224l.576.36c-.456.984-1.092 1.776-1.908 2.376-.792.6-1.836.9-3.132.9-.792 0-1.5-.108-2.124-.324a3.688 3.688 0 01-1.512-.9 3.848 3.848 0 01-1.044-1.944c-.144-.792-.216-1.812-.216-3.06V11.072h-2.88v-.72h2.88v-4.5c1.128 0 2.16-.108 3.096-.324a10.23 10.23 0 002.736-1.044zm14.065 5.364c1.8 0 3.372.324 4.716.972 1.368.624 2.424 1.656 3.168 3.096.768 1.44 1.152 3.36 1.152 5.76s-.384 4.32-1.152 5.76c-.744 1.44-1.8 2.484-3.168 3.132-1.344.624-2.916.936-4.716.936-1.776 0-3.348-.312-4.716-.936-1.344-.648-2.4-1.692-3.168-3.132-.768-1.44-1.152-3.36-1.152-5.76s.384-4.32 1.152-5.76c.768-1.44 1.824-2.472 3.168-3.096 1.368-.648 2.94-.972 4.716-.972zm0 .72c-.84 0-1.548.72-2.124 2.16-.552 1.416-.828 3.732-.828 6.948s.276 5.544.828 6.984c.576 1.416 1.284 2.124 2.124 2.124.864 0 1.572-.708 2.124-2.124.552-1.44.828-3.768.828-6.984s-.276-5.532-.828-6.948c-.552-1.44-1.26-2.16-2.124-2.16z" fill="#121212"/></svg>